<?xml version="1.0" encoding="UTF-8"?>
<svg id="_레이어_2" data-name="레이어_2" xmlns="http://www.w3.org/2000/svg" viewBox="0 0 512 512">
  <defs>
    <style>
      .cls-1 {
        fill: #2ebc4f;
      }
    </style>
  </defs>
  <g id="Capa_1">
    <path class="cls-1" d="M512,407c0-24.81-20.19-45-45-45h-116v-30h75c24.81,0,45-20.19,45-45s-20.19-45-45-45h-15v-15c0-19.56-12.55-36.24-30.01-42.42-.21-41.92-30.91-76.74-71.01-83.41,6.96-10.35,11.02-22.79,11.02-36.17,0-35.84-29.16-65-65-65s-65,29.16-65,65c0,13.38,4.07,25.82,11.02,36.17-40.24,6.69-71.02,41.72-71.02,83.83v62c0,25.13,16.94,46.36,40,52.9v32.1h-21c-17.91,0-34,7.9-45,20.38-11-12.48-27.09-20.38-45-20.38-33.08,0-60,26.92-60,60,0,17.16,7.26,32.66,18.85,43.6-11.54,10.09-18.85,24.9-18.85,41.4v20c0,8.28,6.72,15,15,15h482c8.28,0,15-6.72,15-15v-20c0-14.26-5.46-27.27-14.39-37.05,8.84-8.22,14.39-19.95,14.39-32.95ZM351,227c0-8.27,6.73-15,15-15s15,6.73,15,15v15h-30v-15ZM256,30c19.3,0,35,15.7,35,35s-15.7,35-35,35-35-15.7-35-35,15.7-35,35-35ZM161,247v-62c0-30.33,24.67-55,55-55h80c30.19,0,54.76,24.45,54.99,54.58-17.45,6.2-29.99,22.87-29.99,42.42v15h-22.58c-6.19-17.46-22.86-30-42.42-30h-35v-27c0-8.28-6.72-15-15-15s-15,6.72-15,15v42c0,8.28,6.72,15,15,15h50c8.27,0,15,6.73,15,15s-6.73,15-15,15h-70c-13.79,0-25-11.21-25-25ZM231,302v30h-30v-30h30ZM150,362h96c8.28,0,15-6.72,15-15v-45.28c17.36-1.93,31.76-13.77,37.42-29.72h127.58c8.27,0,15,6.73,15,15s-6.73,15-15,15h-90c-8.28,0-15,6.72-15,15v60c0,24.81-20.19,45-45,45h-126c-16.54,0-30-13.46-30-30s13.46-30,30-30ZM60,362c16.54,0,30,13.46,30,30s-13.46,30-30,30-30-13.46-30-30,13.46-30,30-30ZM482,482H30v-5c0-13.79,11.22-25,25-25h402c13.79,0,25,11.21,25,25v5ZM467,422h-131.04c6.57-8.73,11.27-18.92,13.53-30h117.51c8.27,0,15,6.73,15,15s-6.73,15-15,15Z"/>
  </g>
</svg>